<svg width="892" height="204" viewBox="0 0 892 204" fill="none" xmlns="http://www.w3.org/2000/svg">
<path d="M0.5 2H891.5V202H0.5V2Z" fill="#00FF00"/>
<path d="M0.5 4H891.5V0H0.5V4ZM891.5 200H0.5V204H891.5V200Z" fill="#00FF00"/>
<path d="M73.6328 85.8203L61.8594 112.59H85.707L73.6328 85.8203ZM78.1875 71.7695H79.7773L103.926 124.277C104.699 125.91 105.559 127.257 106.504 128.316C107.478 129.376 108.566 130.15 109.77 130.637C110.973 131.095 112.391 131.324 114.023 131.324H115.613V133H80.7656V131.324H85.3203C87.5833 131.324 89.2305 131.023 90.2617 130.422C91.3216 129.792 91.8516 128.832 91.8516 127.543C91.8516 126.741 91.6367 125.767 91.207 124.621C90.806 123.475 89.9036 121.398 88.5 118.391C88.4141 118.219 88.2852 117.932 88.1133 117.531C87.9414 117.13 87.7552 116.743 87.5547 116.371L86.5664 114.18H61.1289L59.1953 118.648C58.5651 120.167 58.25 121.699 58.25 123.246C58.25 124.564 58.6081 125.867 59.3242 127.156C60.069 128.445 61.0286 129.419 62.2031 130.078C62.9766 130.536 63.6641 130.852 64.2656 131.023C64.8958 131.167 65.7839 131.267 66.9297 131.324V133H42.4805V131.324C44.2565 131.124 45.6602 130.809 46.6914 130.379C47.7513 129.949 48.9258 129.233 50.2148 128.23C53.2513 125.882 56.2161 121.456 59.1094 114.953L78.1875 71.7695ZM121.242 72.9727H145.348L187.07 116.199V90.332C187.07 87.181 186.526 84.431 185.438 82.082C184.378 79.7044 182.831 77.8997 180.797 76.668C179.708 75.9805 178.605 75.4935 177.488 75.207C176.4 74.9206 174.867 74.7057 172.891 74.5625V72.9727H202.625V74.5625H202.023C197.698 74.5625 194.404 75.9375 192.141 78.6875C189.878 81.4375 188.746 85.4336 188.746 90.6758V133.602H187.328L135.508 80.3633V116.027C135.508 119.493 135.923 122.272 136.754 124.363C137.585 126.426 138.931 128.044 140.793 129.219C142.311 130.135 144.159 130.723 146.336 130.98C147.539 131.181 149.258 131.324 151.492 131.41V133H120.168V131.41C123.376 131.238 125.983 130.68 127.988 129.734C130.022 128.76 131.512 127.328 132.457 125.438C133.431 123.547 133.918 121.198 133.918 118.391V84.4453C133.918 82.3542 133.445 80.5781 132.5 79.1172C131.583 77.6562 130.237 76.5391 128.461 75.7656C126.685 74.9635 124.536 74.5625 122.016 74.5625H121.242V72.9727ZM208.855 131.324H210.531C214.227 131.324 216.962 130.436 218.738 128.66C220.543 126.855 221.445 124.105 221.445 120.41C221.445 118.72 221.445 117.202 221.445 115.855C221.445 114.509 221.445 113.22 221.445 111.988C221.445 110.757 221.445 108.909 221.445 106.445C221.445 96.362 221.445 88.9284 221.445 84.1445C221.216 82.2539 220.858 80.75 220.371 79.6328C219.913 78.5156 219.211 77.5846 218.266 76.8398C216.547 75.3216 213.969 74.5625 210.531 74.5625H208.855V72.9727H246.668V74.5625H244.992C241.297 74.5625 238.561 75.4505 236.785 77.2266C235.009 79.0026 234.121 81.7526 234.121 85.4766V120.41C234.121 124.105 235.009 126.855 236.785 128.66C238.59 130.436 241.326 131.324 244.992 131.324H246.668V133H208.855V131.324ZM252.684 72.9727H277.777L300.379 118.906L322.809 72.9727H346.484V74.5625H344.293C340.598 74.5625 337.848 75.4648 336.043 77.2695C334.267 79.0456 333.379 81.7812 333.379 85.4766V120.41C333.379 124.077 334.281 126.812 336.086 128.617C337.891 130.422 340.626 131.324 344.293 131.324H346.484V133H307.684V131.324H310.262C313.928 131.324 316.65 130.436 318.426 128.66C320.23 126.855 321.133 124.105 321.133 120.41V79.5898H320.961L295.18 133H293.719L267.637 79.7617H267.465V118.477C267.465 121.169 267.98 123.461 269.012 125.352C270.043 127.214 271.561 128.66 273.566 129.691C275.572 130.694 278.007 131.238 280.871 131.324V133H252.684V131.324H253.285C257.152 131.324 260.189 130.193 262.395 127.93C264.6 125.667 265.703 122.602 265.703 118.734V85.4766C265.703 81.7526 264.815 79.0026 263.039 77.2266C261.263 75.4505 258.513 74.5625 254.789 74.5625H252.684V72.9727ZM381.719 85.8203L369.945 112.59H393.793L381.719 85.8203ZM386.273 71.7695H387.863L412.012 124.277C412.785 125.91 413.645 127.257 414.59 128.316C415.564 129.376 416.652 130.15 417.855 130.637C419.059 131.095 420.477 131.324 422.109 131.324H423.699V133H388.852V131.324H393.406C395.669 131.324 397.316 131.023 398.348 130.422C399.408 129.792 399.938 128.832 399.938 127.543C399.938 126.741 399.723 125.767 399.293 124.621C398.892 123.475 397.99 121.398 396.586 118.391C396.5 118.219 396.371 117.932 396.199 117.531C396.027 117.13 395.841 116.743 395.641 116.371L394.652 114.18H369.215L367.281 118.648C366.651 120.167 366.336 121.699 366.336 123.246C366.336 124.564 366.694 125.867 367.41 127.156C368.155 128.445 369.115 129.419 370.289 130.078C371.062 130.536 371.75 130.852 372.352 131.023C372.982 131.167 373.87 131.267 375.016 131.324V133H350.566V131.324C352.342 131.124 353.746 130.809 354.777 130.379C355.837 129.949 357.012 129.233 358.301 128.23C361.337 125.882 364.302 121.456 367.195 114.953L386.273 71.7695ZM428.426 72.9727H469.375V74.5625H465.035C461.34 74.5625 458.604 75.4505 456.828 77.2266C455.052 79.0026 454.164 81.7526 454.164 85.4766V131.41H469.719C472.784 131.41 475.677 130.737 478.398 129.391C481.12 128.016 483.483 126.111 485.488 123.676C486.691 122.158 487.751 120.654 488.668 119.164C489.585 117.674 490.458 115.87 491.289 113.75C492.12 111.63 492.936 109.195 493.738 106.445H495.328V133H428.426L428.34 131.41H430.574C437.85 131.41 441.488 127.743 441.488 120.41V85.4766C441.488 78.2005 437.85 74.5625 430.574 74.5625H428.426V72.9727ZM555.055 74.5625V100.602H558.836C562.818 100.602 565.926 99.2982 568.16 96.6914C570.395 94.0846 571.999 89.8737 572.973 84.0586H574.477V118.477H572.887C572.428 115.497 571.87 113.134 571.211 111.387C570.552 109.639 569.65 108.078 568.504 106.703C566.069 103.695 562.574 102.191 558.02 102.191H555.055V120.41C555.055 124.105 555.943 126.855 557.719 128.66C559.523 130.436 562.259 131.324 565.926 131.324H569.75V133H529.961V131.324H531.465C535.16 131.324 537.896 130.436 539.672 128.66C541.477 126.855 542.379 124.105 542.379 120.41V85.4766C542.379 81.7526 541.491 79.0026 539.715 77.2266C537.939 75.4505 535.189 74.5625 531.465 74.5625H529.961V72.9727H595.617V98.9258H594.199C593.77 96.6914 593.297 94.6432 592.781 92.7812C592.266 90.9193 591.764 89.487 591.277 88.4844C589.845 85.3047 588.098 82.6979 586.035 80.6641C584.001 78.6016 581.581 77.069 578.773 76.0664C575.995 75.0638 572.829 74.5625 569.277 74.5625H555.055ZM621.227 85.8203L609.453 112.59H633.301L621.227 85.8203ZM625.781 71.7695H627.371L651.52 124.277C652.293 125.91 653.152 127.257 654.098 128.316C655.072 129.376 656.16 130.15 657.363 130.637C658.566 131.095 659.984 131.324 661.617 131.324H663.207V133H628.359V131.324H632.914C635.177 131.324 636.824 131.023 637.855 130.422C638.915 129.792 639.445 128.832 639.445 127.543C639.445 126.741 639.23 125.767 638.801 124.621C638.4 123.475 637.497 121.398 636.094 118.391C636.008 118.219 635.879 117.932 635.707 117.531C635.535 117.13 635.349 116.743 635.148 116.371L634.16 114.18H608.723L606.789 118.648C606.159 120.167 605.844 121.699 605.844 123.246C605.844 124.564 606.202 125.867 606.918 127.156C607.663 128.445 608.622 129.419 609.797 130.078C610.57 130.536 611.258 130.852 611.859 131.023C612.49 131.167 613.378 131.267 614.523 131.324V133H590.074V131.324C591.85 131.124 593.254 130.809 594.285 130.379C595.345 129.949 596.52 129.233 597.809 128.23C600.845 125.882 603.81 121.456 606.703 114.953L625.781 71.7695ZM708.625 103.609H695.133V120.41C695.133 124.077 696.035 126.812 697.84 128.617C699.645 130.422 702.38 131.324 706.047 131.324H707.809V133H669.91V131.324H671.543C675.238 131.324 677.974 130.436 679.75 128.66C681.555 126.855 682.457 124.105 682.457 120.41V85.4766C682.457 81.7526 681.569 79.0026 679.793 77.2266C678.017 75.4505 675.267 74.5625 671.543 74.5625H669.91V72.9727H716.445C722.747 72.9727 727.732 73.431 731.398 74.3477C735.065 75.2643 737.973 76.8112 740.121 78.9883C741.353 80.2201 742.327 81.681 743.043 83.3711C743.788 85.0612 744.16 86.737 744.16 88.3984C744.16 92.9245 741.811 96.5625 737.113 99.3125C735.366 100.258 732.988 101.103 729.98 101.848C726.973 102.592 723.979 103.094 721 103.352C718.737 103.523 715.285 103.609 710.645 103.609V103.781C712.936 105.271 715.013 106.503 716.875 107.477C718.737 108.451 720.613 109.281 722.504 109.969C724.395 110.628 726.543 111.229 728.949 111.773L730.367 113.922C731.312 115.297 732.014 116.328 732.473 117.016C732.931 117.703 733.461 118.491 734.062 119.379C735.667 121.814 737.185 123.934 738.617 125.738C740.078 127.514 741.281 128.76 742.227 129.477C744.089 130.708 746.753 131.324 750.219 131.324H751.895V133H729.379L708.625 103.609ZM695.133 102.02H712.234C716.273 102.02 719.582 101.533 722.16 100.559C724.767 99.556 726.701 98.0521 727.961 96.0469C729.25 94.013 729.895 91.4062 729.895 88.2266C729.895 79.1172 724.094 74.5625 712.492 74.5625H695.133V102.02ZM755.332 72.9727H780.426L803.027 118.906L825.457 72.9727H849.133V74.5625H846.941C843.246 74.5625 840.496 75.4648 838.691 77.2695C836.915 79.0456 836.027 81.7812 836.027 85.4766V120.41C836.027 124.077 836.93 126.812 838.734 128.617C840.539 130.422 843.275 131.324 846.941 131.324H849.133V133H810.332V131.324H812.91C816.577 131.324 819.298 130.436 821.074 128.66C822.879 126.855 823.781 124.105 823.781 120.41V79.5898H823.609L797.828 133H796.367L770.285 79.7617H770.113V118.477C770.113 121.169 770.629 123.461 771.66 125.352C772.691 127.214 774.21 128.66 776.215 129.691C778.22 130.694 780.655 131.238 783.52 131.324V133H755.332V131.324H755.934C759.801 131.324 762.837 130.193 765.043 127.93C767.249 125.667 768.352 122.602 768.352 118.734V85.4766C768.352 81.7526 767.464 79.0026 765.688 77.2266C763.911 75.4505 761.161 74.5625 757.438 74.5625H755.332V72.9727Z" fill="black"/>
</svg>
