<svg width="174" height="47" viewBox="0 0 174 47" fill="none" xmlns="http://www.w3.org/2000/svg">
<g clip-path="url(#clip0_2702_130)">
<path fill-rule="evenodd" clip-rule="evenodd" d="M46.1558 22.8279C46.1558 35.4354 35.9176 45.6558 23.2881 45.6558C11.306 45.6558 1.47624 36.4563 0.5 24.7468H30.7259V20.909H0.5C1.47624 9.19946 11.306 0 23.2881 0C35.9176 0 46.1558 10.2204 46.1558 22.8279ZM130.935 41.5199C138.859 41.5199 144.056 37.2494 144.056 30.8177C144.056 24.8491 140.145 22.0192 134.228 21.0416L128.98 20.1669C124.967 19.498 122.291 17.7486 122.291 13.8896C122.291 9.97915 125.275 6.99484 130.935 6.99484C136.441 6.99484 139.271 9.7733 139.579 13.7352H143.541C143.232 8.487 139.219 3.80473 130.987 3.80473C122.857 3.80473 118.381 8.38405 118.381 14.044C118.381 20.064 122.445 22.8425 128.002 23.7686L133.302 24.5919C137.727 25.3637 140.197 27.1645 140.197 30.9721C140.197 35.4486 136.543 38.3299 130.987 38.3299C125.224 38.3299 121.622 35.5515 121.313 30.8177H117.403C117.712 36.9922 122.445 41.5199 130.935 41.5199ZM72.5201 40.7997H58.1135V4.57654H72.0056C78.1287 4.57654 82.3995 8.17825 82.3995 13.9411C82.3995 18.1088 80.0324 20.8872 76.225 21.8134V21.9678C80.7527 22.8425 83.5314 25.9297 83.5314 30.7663C83.5314 36.9922 78.9519 40.7997 72.5201 40.7997ZM71.4911 20.4756C75.8648 20.4756 78.5403 18.1088 78.5403 14.4041V13.8896C78.5403 10.1849 75.8648 7.86955 71.4911 7.86955H61.9723V20.4756H71.4911ZM71.9542 37.5067C76.7395 37.5067 79.6722 34.8826 79.6722 30.8692V30.3546C79.6722 26.1869 76.6881 23.6657 71.9027 23.6657H61.9723V37.5067H71.9542ZM114.694 40.7997H110.578L107.49 30.9721H93.0834L89.9963 40.7997H86.0857L97.9716 4.57654H102.654L114.694 40.7997ZM100.493 8.53845H100.184L94.1124 27.7305H106.513L100.493 8.53845ZM149.852 40.7997V4.57654H173.109V7.921H153.711V20.3727H171.565V23.6657H153.711V37.4552H173.109V40.7997H149.852Z" fill="#0052FF"/>
</g>
<defs>
<clipPath id="clip0_2702_130">
<rect width="172.609" height="46.0566" fill="white" transform="translate(0.5)"/>
</clipPath>
</defs>
</svg>
