<svg width="178" height="67" viewBox="0 0 178 67" fill="none" xmlns="http://www.w3.org/2000/svg">
<path d="M5.27792 40.6789H5.28746L13.557 0.78418L177.516 0.784313L169.247 40.679H169.237L163.994 65.9716H0.0351562L5.27792 40.6789Z" fill="#FF1493"/>
<path d="M29.262 18.581L26.7477 30.7058H30.3237C33.5085 30.7058 36.0788 28.8061 36.9169 24.7272C37.755 20.7601 36.6375 18.581 32.6145 18.581H29.262ZM14.1758 52.553L22.4453 12.6582H36.5258C44.6835 12.6582 46.3039 18.6368 44.9629 24.6155C43.3425 32.9408 37.3639 36.6286 29.8208 36.6286H25.5184L22.2218 52.553H14.1758Z" fill="white"/>
<path d="M51.5872 52.553H43.5412L51.8107 12.6582H59.8567L51.5872 52.553Z" fill="white"/>
<path d="M88.7894 24.5037H81.0787C81.2463 23.7773 81.3022 22.9951 81.3022 22.2128C81.3022 19.922 80.2964 17.7987 77.8938 17.7987C74.0384 17.7987 71.5799 21.7658 69.5126 31.7675C67.4452 41.378 67.2217 47.4125 71.8034 47.4125C73.7032 47.4125 77.1674 45.3451 78.0614 41.0427L78.9554 36.9638H73.6473L74.8766 31.0411H87.8954L83.4254 52.553H77.5027L78.2291 48.8652H78.1173C75.6029 51.9942 72.6416 53.3352 68.8421 53.3352C58.9522 53.3352 58.5611 45.9597 61.3548 32.1586C64.2044 18.7486 68.6744 11.876 79.0113 11.876C87.8396 11.876 90.4657 16.4018 88.7894 24.5037Z" fill="white"/>
<path d="M119.837 24.5037H112.126C112.294 23.7773 112.35 22.9951 112.35 22.2128C112.35 19.922 111.344 17.7987 108.942 17.7987C105.086 17.7987 102.628 21.7658 100.56 31.7675C98.4929 41.378 98.2694 47.4125 102.851 47.4125C104.751 47.4125 108.215 45.3451 109.109 41.0427L110.003 36.9638H104.695L105.924 31.0411H118.943L114.473 52.553H108.55L109.277 48.8652H109.165C106.651 51.9942 103.689 53.3352 99.8898 53.3352C89.9999 53.3352 89.6088 45.9597 92.4025 32.1586C95.2522 18.7486 99.7222 11.876 110.059 11.876C118.887 11.876 121.513 16.4018 119.837 24.5037Z" fill="white"/>
<path d="M122.5 12.6582H131.552L133.62 28.0797H133.731L142.504 12.6582H151.22L135.855 36.8521L132.614 52.553H124.568L127.809 36.8521L122.5 12.6582Z" fill="white"/>
<path d="M149.015 45.1775H156.726L155.217 52.553H147.506L149.015 45.1775ZM156.446 41.4338H150.859L153.094 25.6212L155.776 12.6582H163.486L160.804 25.6212L156.446 41.4338Z" fill="white"/>
</svg>
