<svg width="519" height="147" viewBox="0 0 519 147" fill="none" xmlns="http://www.w3.org/2000/svg">
<path d="M11.0558 79.8578H11.0749L27.6139 0.0683594L355.532 0.0686258L338.993 79.858H338.974L328.489 130.443H0.570312L11.0558 79.8578Z" fill="#FF1493"/>
<path d="M59.0241 35.6619L53.9953 59.9117H61.1473C67.5171 59.9117 72.6576 56.1122 74.3338 47.9544C76.0101 40.0202 73.7751 35.6619 65.7291 35.6619H59.0241ZM28.8516 103.606L45.3906 23.8165H73.5516C89.8671 23.8165 93.1078 35.7737 90.4258 47.7309C87.1851 64.3817 75.2278 71.7572 60.1416 71.7572H51.5368L44.9436 103.606H28.8516Z" fill="white"/>
<path d="M103.674 103.606H87.5823L104.121 23.8165H120.213L103.674 103.606Z" fill="white"/>
<path d="M178.079 47.5074H162.657C162.993 46.0547 163.104 44.4902 163.104 42.9257C163.104 38.3439 161.093 34.0974 156.288 34.0974C148.577 34.0974 143.66 42.0317 139.525 62.0349C135.39 81.2559 134.943 93.3249 144.107 93.3249C147.906 93.3249 154.835 89.1902 156.623 80.5854L158.411 72.4277H147.795L150.253 60.5822H176.291L167.351 103.606H155.505L156.958 96.2304H156.735C151.706 102.488 145.783 105.17 138.184 105.17C118.404 105.17 117.622 90.4194 123.21 62.8172C128.909 35.9972 137.849 22.252 158.523 22.252C176.179 22.252 181.431 31.3037 178.079 47.5074Z" fill="white"/>
<path d="M240.174 47.5074H224.753C225.088 46.0547 225.2 44.4902 225.2 42.9257C225.2 38.3439 223.188 34.0974 218.383 34.0974C210.672 34.0974 205.755 42.0317 201.621 62.0349C197.486 81.2559 197.039 93.3249 206.202 93.3249C210.002 93.3249 216.93 89.1902 218.718 80.5854L220.506 72.4277H209.89L212.349 60.5822H238.386L229.446 103.606H217.601L219.054 96.2304H218.83C213.801 102.488 207.879 105.17 200.28 105.17C180.5 105.17 179.718 90.4194 185.305 62.8172C191.004 35.9972 199.944 22.252 220.618 22.252C238.275 22.252 243.527 31.3037 240.174 47.5074Z" fill="white"/>
<path d="M245.501 23.8165H263.604L267.739 54.6594H267.963L285.507 23.8165H302.94L272.209 72.2042L265.728 103.606H249.636L256.117 72.2042L245.501 23.8165Z" fill="white"/>
<path d="M298.53 88.8549H313.951L310.934 103.606H295.512L298.53 88.8549ZM313.392 81.3677H302.217L306.687 49.7424L312.051 23.8165H327.473L322.109 49.7424L313.392 81.3677Z" fill="white"/>
<path d="M349.056 79.8578H349.075L365.614 0.0683594L518.5 0.0686258L501.961 79.858H501.942L491.456 130.443H338.57L349.056 79.8578Z" fill="#0000FF"/>
<path d="M410.875 36.16L393.739 76.606H411.379L411.127 36.16H410.875ZM360.601 110.5L403.063 20.536H425.491L430.657 110.5H411.757L411.505 91.474H387.565L379.501 110.5H360.601ZM462.241 110.5H444.097L462.745 20.536H480.889L462.241 110.5Z" fill="#00FF00"/>
</svg>
