<svg width="712" height="263" viewBox="0 0 712 263" fill="none" xmlns="http://www.w3.org/2000/svg">
<path d="M21.1117 159.915H21.1498L54.2278 0.335938L710.065 0.33647L676.987 159.915H676.949L655.978 261.086H0.140625L21.1117 159.915Z" fill="white"/>
<path d="M117.048 71.5231L106.991 120.023H121.295C134.034 120.023 144.315 112.424 147.668 96.1081C151.02 80.2396 146.55 71.5231 130.458 71.5231H117.048ZM56.7031 207.411L89.7811 47.8321H146.103C178.734 47.8321 185.216 71.7466 179.852 95.6611C173.37 128.963 149.456 143.714 119.283 143.714H102.074L88.8871 207.411H56.7031Z" fill="#FF1493"/>
<path d="M206.349 207.411H174.165L207.243 47.8321H239.427L206.349 207.411Z" fill="#FF1493"/>
<path d="M355.158 95.2141H324.315C324.985 92.3086 325.209 89.1796 325.209 86.0506C325.209 76.8871 321.186 68.3941 311.575 68.3941C296.154 68.3941 286.32 84.2626 278.05 124.269C269.781 162.711 268.887 186.849 287.214 186.849C294.813 186.849 308.67 178.58 312.246 161.37L315.822 145.055H294.589L299.506 121.364H351.582L333.702 207.411H310.011L312.916 192.66H312.469C302.412 205.176 290.566 210.54 275.368 210.54C235.809 210.54 234.244 181.038 245.419 125.834C256.818 72.1936 274.698 44.7031 316.045 44.7031C351.358 44.7031 361.863 62.8066 355.158 95.2141Z" fill="#FF1493"/>
<path d="M479.349 95.2141H448.506C449.176 92.3086 449.4 89.1796 449.4 86.0506C449.4 76.8871 445.377 68.3941 435.766 68.3941C420.345 68.3941 410.511 84.2626 402.241 124.269C393.972 162.711 393.078 186.849 411.405 186.849C419.004 186.849 432.861 178.58 436.437 161.37L440.013 145.055H418.78L423.697 121.364H475.773L457.893 207.411H434.202L437.107 192.66H436.66C426.603 205.176 414.757 210.54 399.559 210.54C360 210.54 358.435 181.038 369.61 125.834C381.009 72.1936 398.889 44.7031 440.236 44.7031C475.549 44.7031 486.054 62.8066 479.349 95.2141Z" fill="#FF1493"/>
<path d="M490.002 47.8321H526.209L534.478 109.518H534.925L570.015 47.8321H604.881L543.418 144.608L530.455 207.411H498.271L511.234 144.608L490.002 47.8321Z" fill="#FF1493"/>
<path d="M596.059 177.909H626.902L620.868 207.411H590.025L596.059 177.909ZM625.785 162.935H603.435L612.375 99.6841L623.103 47.8321H653.946L643.218 99.6841L625.785 162.935Z" fill="#FF1493"/>
</svg>
