<svg width="194" height="50" viewBox="0 0 194 50" fill="none" xmlns="http://www.w3.org/2000/svg">
<mask id="path-1-outside-1_2608_39682" maskUnits="userSpaceOnUse" x="0" y="0" width="194" height="50" fill="black">
<rect fill="white" width="194" height="50"/>
<path d="M1.63562 48.3836H1L3.59359 30.2082H4.24192C3.0449 43.6888 5.78781 48.3194 10.0769 48.3194C14.5153 48.3194 16.8591 42.8721 16.8591 37.1531C16.8591 31.9789 14.3381 29.4579 12.0439 27.2112C7.75512 23.0577 6.18664 20.2003 6.18664 14.0724C6.18664 8.01266 8.63063 1 14.0166 1C16.0612 1 17.2083 2.15757 18.3556 4.19988C18.4494 4.36004 18.5521 4.55884 18.6608 4.76928C19.0146 5.45408 19.432 6.26203 19.8135 6.26203C20.379 6.26203 20.4084 6.15435 21.4627 2.28951L21.6575 1.576H22.505L19.784 19.6551H19.0536C19.7019 5.62956 17.1586 1.68061 13.9669 1.68061C9.52819 1.68061 7.68311 7.74032 7.7328 13.2553C7.78249 16.9319 9.02946 19.5189 12.9194 23.1278C16.8094 26.7362 18.5549 29.8681 18.455 35.5871C18.3556 41.8511 15.4628 49 10.0267 49C6.98753 49 5.62793 47.025 4.77512 45.7863L4.69043 45.6634C4.63612 45.5893 4.58301 45.5136 4.53037 45.4385C4.2446 45.0309 3.97227 44.6425 3.59332 44.6425C2.8953 44.6425 2.3339 45.5923 1.63562 48.3836Z"/>
<path fill-rule="evenodd" clip-rule="evenodd" d="M27.0366 6.60737C27.5395 3.3258 27.1369 2.43679 25.3262 2.43679H24.2696L24.4204 1.54778H33.627L33.4762 2.43679H32.4699C30.6589 2.43679 29.9042 3.18915 29.401 6.60737L24.8735 35.3939C24.5715 37.4447 24.3704 39.5645 24.4207 40.9319C24.5715 45.1032 26.3827 47.6328 30.206 47.6328C34.8848 47.6328 36.7461 42.0262 37.9537 34.2314L41.5759 11.2575C42.5822 4.82983 42.3306 2.43679 39.2618 2.43679H39.0102L39.161 1.54778L57.3514 1.54756C61.7346 1.54756 64.9589 4.56057 64.9589 10.7917C64.9589 19.8989 60.2734 26.2662 53.1195 26.2662H50.0965L47.4266 43.3846C46.9227 46.6714 47.4266 47.4931 49.2904 47.4931H50.8525L50.7014 48.3836H41.0285L41.1795 47.4931L42.1871 47.4934C43.8496 47.4934 44.5549 46.8087 45.0585 43.3849L50.8525 6.54651C51.3564 3.25974 50.8525 2.43799 49.1394 2.43799H47.5059L47.0594 2.43679C44.4937 2.43679 43.538 4.69318 42.5317 10.9833L38.8592 34.368C37.5008 42.8465 35.388 49 29.3003 49C24.5212 49 22.2573 45.7866 22.2071 40.2479C22.2071 38.4017 22.4081 36.214 22.7605 33.821L27.0366 6.60737ZM62.3896 10.5181C62.2888 18.8721 59.4674 25.3769 53.0187 25.3769H50.2478L53.2203 6.47783C53.7242 3.19153 54.5302 2.43822 56.2936 2.43822H56.8477C61.4325 2.43822 62.4399 6.8205 62.3896 10.5181Z"/>
<path d="M59.3645 47.4934C61.0271 47.4934 61.682 46.8087 62.236 43.3169L67.9794 6.75181C68.5838 3.19175 68.0297 2.4382 66.3166 2.4382H65.3093L65.4603 1.54778H83.3661L80.7762 17.9816H80.222C81.6325 5.72521 81.2801 2.4382 75.2343 2.4382H73.471C71.7074 2.4382 70.9519 3.05464 70.3977 6.54672L67.7276 23.5963H69.2388C72.8663 23.5963 74.277 19.4198 75.1333 13.8733H75.6875L72.4129 34.8263H71.8587C72.7652 29.143 72.7652 24.4867 69.0875 24.4867H67.5763L64.6038 43.3851C64.0998 46.809 64.7043 47.4936 66.4679 47.4936H68.6844C74.4781 47.4936 76.6445 42.1529 78.9115 30.5123H79.4657L76.5943 48.384H58.2054L58.3564 47.4936L59.3645 47.4934Z"/>
<path fill-rule="evenodd" clip-rule="evenodd" d="M93.8214 25.7186V25.5818C98.9604 23.3223 102.134 17.5016 102.134 10.449C102.285 4.56056 99.2119 1.54756 94.3753 1.54756H85.9615L85.8104 2.43798H86.8686C88.6319 2.43798 89.035 3.32841 88.5311 6.5465L82.7877 43.1109C82.3345 46.3297 81.6796 47.4931 79.866 47.4931H78.8581L78.7071 48.3836H87.8261L87.9772 47.4931H86.8183C85.0552 47.4931 84.6521 46.4665 85.1057 43.2477L87.8261 26.0613H90.3452C93.7711 26.0613 95.0308 26.2664 94.0229 38.4548C93.368 46.6716 94.4764 49 96.5923 49C98.4062 49 100.472 45.7132 101.228 37.7702H100.522C99.968 43.6586 98.7588 46.0552 97.7515 46.0552C96.5926 46.0552 96.0887 44.7546 96.5423 35.5105C96.7941 29.0743 95.4842 26.9515 93.8214 25.7186ZM99.5648 9.42239C99.5648 16.0644 97.2475 25.1709 91.8567 25.1709H87.9772L90.8994 6.47759C91.4031 3.1913 92.2091 2.43798 93.9727 2.43798H94.5269C99.0611 2.43798 99.6153 5.99851 99.5648 9.42239Z"/>
<path d="M101.666 47.4934C103.328 47.4934 103.983 46.8774 104.537 43.3849L110.331 6.5465C110.885 3.05465 110.331 2.43798 108.618 2.43798H107.611L107.762 1.54756H125.214L122.573 17.8443H122.019C123.53 5.31388 122.724 2.43775 117.435 2.43775H115.772C114.009 2.43775 113.253 2.9173 112.699 6.54627L109.928 24.0754H111.59C115.217 24.0754 116.124 20.6515 117.283 14.4204H117.837L114.613 35.1676H114.059C114.764 29.416 115.066 24.9656 111.49 24.9656H109.776L106.905 43.3844C106.351 46.8769 107.006 47.4929 108.769 47.4929H110.079L109.928 48.3833H100.507L100.658 47.4929L101.666 47.4934Z"/>
<path fill-rule="evenodd" clip-rule="evenodd" d="M142.762 15.8517C142.762 7.00784 140.428 1 136.206 1C128.755 1 122.347 19.0922 122.347 34.2139C122.347 43.058 124.731 48.9313 128.953 48.9313C136.503 48.9313 142.762 30.6361 142.762 15.8517ZM136.106 1.60699C139.236 1.60699 140.428 5.5227 140.477 11.261C140.527 15.2438 139.981 20.1049 139.186 25.1005C137.298 37.3194 134.219 48.3233 129.053 48.3233C125.874 48.3233 124.533 44.2729 124.533 38.4673C124.533 34.5516 125.03 29.7582 125.824 24.8305C127.712 12.6109 130.991 1.60699 136.106 1.60699Z"/>
<path fill-rule="evenodd" clip-rule="evenodd" d="M152.886 25.5818V25.7186C154.549 26.9515 155.859 29.0743 155.607 35.5105C155.153 44.7546 155.657 46.0552 156.816 46.0552C157.823 46.0552 159.032 43.6586 159.587 37.7702H160.292C159.536 45.7132 157.471 49 155.657 49C153.541 49 152.432 46.6716 153.087 38.4548C154.095 26.2664 152.836 26.0613 149.41 26.0613H146.89L144.17 43.2477C143.716 46.4665 144.12 47.4931 145.883 47.4931H147.042L146.89 48.3836H137.771L137.922 47.4931H138.93C140.744 47.4931 141.399 46.3297 141.852 43.1109L147.595 6.5465C148.099 3.32841 147.696 2.43798 145.933 2.43798H144.875L145.026 1.54756H153.44C158.276 1.54756 161.349 4.56056 161.198 10.449C161.198 17.5016 158.025 23.3223 152.886 25.5818ZM150.921 25.1709C156.312 25.1709 158.629 16.0644 158.629 9.42239C158.68 5.99851 158.126 2.43798 153.592 2.43798H153.037C151.274 2.43798 150.468 3.1913 149.964 6.47759L147.042 25.1709H150.921Z"/>
<path d="M193 1.54778H186.926L173.674 41.9476L173.022 1.54801H166.948L166.747 2.43844H167.802C169.508 2.43844 169.96 3.19175 169.458 6.61493L164.388 39.0028C163.284 46.0557 162.531 47.4936 160.121 47.4936H159.82L159.67 48.384H167.099L167.25 47.4936H167.099C164.238 47.4936 164.188 46.193 165.292 39.0028L170.613 4.90369H170.663L171.617 48.9315H172.169L186.676 4.90369H186.776L180.803 43.3169C180.251 46.8774 179.548 47.4934 177.841 47.4934H176.837L176.686 48.3838H185.671L185.822 47.4934H184.768C183.111 47.4934 182.609 46.8087 183.161 43.3169L188.884 6.54672C189.436 3.05464 190.239 2.4382 191.946 2.4382H192.85L193 1.54778Z"/>
</mask>
<path d="M1.63562 48.3836H1L3.59359 30.2082H4.24192C3.0449 43.6888 5.78781 48.3194 10.0769 48.3194C14.5153 48.3194 16.8591 42.8721 16.8591 37.1531C16.8591 31.9789 14.3381 29.4579 12.0439 27.2112C7.75512 23.0577 6.18664 20.2003 6.18664 14.0724C6.18664 8.01266 8.63063 1 14.0166 1C16.0612 1 17.2083 2.15757 18.3556 4.19988C18.4494 4.36004 18.5521 4.55884 18.6608 4.76928C19.0146 5.45408 19.432 6.26203 19.8135 6.26203C20.379 6.26203 20.4084 6.15435 21.4627 2.28951L21.6575 1.576H22.505L19.784 19.6551H19.0536C19.7019 5.62956 17.1586 1.68061 13.9669 1.68061C9.52819 1.68061 7.68311 7.74032 7.7328 13.2553C7.78249 16.9319 9.02946 19.5189 12.9194 23.1278C16.8094 26.7362 18.5549 29.8681 18.455 35.5871C18.3556 41.8511 15.4628 49 10.0267 49C6.98753 49 5.62793 47.025 4.77512 45.7863L4.69043 45.6634C4.63612 45.5893 4.58301 45.5136 4.53037 45.4385C4.2446 45.0309 3.97227 44.6425 3.59332 44.6425C2.8953 44.6425 2.3339 45.5923 1.63562 48.3836Z" fill="black"/>
<path fill-rule="evenodd" clip-rule="evenodd" d="M27.0366 6.60737C27.5395 3.3258 27.1369 2.43679 25.3262 2.43679H24.2696L24.4204 1.54778H33.627L33.4762 2.43679H32.4699C30.6589 2.43679 29.9042 3.18915 29.401 6.60737L24.8735 35.3939C24.5715 37.4447 24.3704 39.5645 24.4207 40.9319C24.5715 45.1032 26.3827 47.6328 30.206 47.6328C34.8848 47.6328 36.7461 42.0262 37.9537 34.2314L41.5759 11.2575C42.5822 4.82983 42.3306 2.43679 39.2618 2.43679H39.0102L39.161 1.54778L57.3514 1.54756C61.7346 1.54756 64.9589 4.56057 64.9589 10.7917C64.9589 19.8989 60.2734 26.2662 53.1195 26.2662H50.0965L47.4266 43.3846C46.9227 46.6714 47.4266 47.4931 49.2904 47.4931H50.8525L50.7014 48.3836H41.0285L41.1795 47.4931L42.1871 47.4934C43.8496 47.4934 44.5549 46.8087 45.0585 43.3849L50.8525 6.54651C51.3564 3.25974 50.8525 2.43799 49.1394 2.43799H47.5059L47.0594 2.43679C44.4937 2.43679 43.538 4.69318 42.5317 10.9833L38.8592 34.368C37.5008 42.8465 35.388 49 29.3003 49C24.5212 49 22.2573 45.7866 22.2071 40.2479C22.2071 38.4017 22.4081 36.214 22.7605 33.821L27.0366 6.60737ZM62.3896 10.5181C62.2888 18.8721 59.4674 25.3769 53.0187 25.3769H50.2478L53.2203 6.47783C53.7242 3.19153 54.5302 2.43822 56.2936 2.43822H56.8477C61.4325 2.43822 62.4399 6.8205 62.3896 10.5181Z" fill="black"/>
<path d="M59.3645 47.4934C61.0271 47.4934 61.682 46.8087 62.236 43.3169L67.9794 6.75181C68.5838 3.19175 68.0297 2.4382 66.3166 2.4382H65.3093L65.4603 1.54778H83.3661L80.7762 17.9816H80.222C81.6325 5.72521 81.2801 2.4382 75.2343 2.4382H73.471C71.7074 2.4382 70.9519 3.05464 70.3977 6.54672L67.7276 23.5963H69.2388C72.8663 23.5963 74.277 19.4198 75.1333 13.8733H75.6875L72.4129 34.8263H71.8587C72.7652 29.143 72.7652 24.4867 69.0875 24.4867H67.5763L64.6038 43.3851C64.0998 46.809 64.7043 47.4936 66.4679 47.4936H68.6844C74.4781 47.4936 76.6445 42.1529 78.9115 30.5123H79.4657L76.5943 48.384H58.2054L58.3564 47.4936L59.3645 47.4934Z" fill="black"/>
<path fill-rule="evenodd" clip-rule="evenodd" d="M93.8214 25.7186V25.5818C98.9604 23.3223 102.134 17.5016 102.134 10.449C102.285 4.56056 99.2119 1.54756 94.3753 1.54756H85.9615L85.8104 2.43798H86.8686C88.6319 2.43798 89.035 3.32841 88.5311 6.5465L82.7877 43.1109C82.3345 46.3297 81.6796 47.4931 79.866 47.4931H78.8581L78.7071 48.3836H87.8261L87.9772 47.4931H86.8183C85.0552 47.4931 84.6521 46.4665 85.1057 43.2477L87.8261 26.0613H90.3452C93.7711 26.0613 95.0308 26.2664 94.0229 38.4548C93.368 46.6716 94.4764 49 96.5923 49C98.4062 49 100.472 45.7132 101.228 37.7702H100.522C99.968 43.6586 98.7588 46.0552 97.7515 46.0552C96.5926 46.0552 96.0887 44.7546 96.5423 35.5105C96.7941 29.0743 95.4842 26.9515 93.8214 25.7186ZM99.5648 9.42239C99.5648 16.0644 97.2475 25.1709 91.8567 25.1709H87.9772L90.8994 6.47759C91.4031 3.1913 92.2091 2.43798 93.9727 2.43798H94.5269C99.0611 2.43798 99.6153 5.99851 99.5648 9.42239Z" fill="black"/>
<path d="M101.666 47.4934C103.328 47.4934 103.983 46.8774 104.537 43.3849L110.331 6.5465C110.885 3.05465 110.331 2.43798 108.618 2.43798H107.611L107.762 1.54756H125.214L122.573 17.8443H122.019C123.53 5.31388 122.724 2.43775 117.435 2.43775H115.772C114.009 2.43775 113.253 2.9173 112.699 6.54627L109.928 24.0754H111.59C115.217 24.0754 116.124 20.6515 117.283 14.4204H117.837L114.613 35.1676H114.059C114.764 29.416 115.066 24.9656 111.49 24.9656H109.776L106.905 43.3844C106.351 46.8769 107.006 47.4929 108.769 47.4929H110.079L109.928 48.3833H100.507L100.658 47.4929L101.666 47.4934Z" fill="black"/>
<path fill-rule="evenodd" clip-rule="evenodd" d="M142.762 15.8517C142.762 7.00784 140.428 1 136.206 1C128.755 1 122.347 19.0922 122.347 34.2139C122.347 43.058 124.731 48.9313 128.953 48.9313C136.503 48.9313 142.762 30.6361 142.762 15.8517ZM136.106 1.60699C139.236 1.60699 140.428 5.5227 140.477 11.261C140.527 15.2438 139.981 20.1049 139.186 25.1005C137.298 37.3194 134.219 48.3233 129.053 48.3233C125.874 48.3233 124.533 44.2729 124.533 38.4673C124.533 34.5516 125.03 29.7582 125.824 24.8305C127.712 12.6109 130.991 1.60699 136.106 1.60699Z" fill="black"/>
<path fill-rule="evenodd" clip-rule="evenodd" d="M152.886 25.5818V25.7186C154.549 26.9515 155.859 29.0743 155.607 35.5105C155.153 44.7546 155.657 46.0552 156.816 46.0552C157.823 46.0552 159.032 43.6586 159.587 37.7702H160.292C159.536 45.7132 157.471 49 155.657 49C153.541 49 152.432 46.6716 153.087 38.4548C154.095 26.2664 152.836 26.0613 149.41 26.0613H146.89L144.17 43.2477C143.716 46.4665 144.12 47.4931 145.883 47.4931H147.042L146.89 48.3836H137.771L137.922 47.4931H138.93C140.744 47.4931 141.399 46.3297 141.852 43.1109L147.595 6.5465C148.099 3.32841 147.696 2.43798 145.933 2.43798H144.875L145.026 1.54756H153.44C158.276 1.54756 161.349 4.56056 161.198 10.449C161.198 17.5016 158.025 23.3223 152.886 25.5818ZM150.921 25.1709C156.312 25.1709 158.629 16.0644 158.629 9.42239C158.68 5.99851 158.126 2.43798 153.592 2.43798H153.037C151.274 2.43798 150.468 3.1913 149.964 6.47759L147.042 25.1709H150.921Z" fill="black"/>
<path d="M193 1.54778H186.926L173.674 41.9476L173.022 1.54801H166.948L166.747 2.43844H167.802C169.508 2.43844 169.96 3.19175 169.458 6.61493L164.388 39.0028C163.284 46.0557 162.531 47.4936 160.121 47.4936H159.82L159.67 48.384H167.099L167.25 47.4936H167.099C164.238 47.4936 164.188 46.193 165.292 39.0028L170.613 4.90369H170.663L171.617 48.9315H172.169L186.676 4.90369H186.776L180.803 43.3169C180.251 46.8774 179.548 47.4934 177.841 47.4934H176.837L176.686 48.3838H185.671L185.822 47.4934H184.768C183.111 47.4934 182.609 46.8087 183.161 43.3169L188.884 6.54672C189.436 3.05464 190.239 2.4382 191.946 2.4382H192.85L193 1.54778Z" fill="black"/>
<path d="M1.63562 48.3836H1L3.59359 30.2082H4.24192C3.0449 43.6888 5.78781 48.3194 10.0769 48.3194C14.5153 48.3194 16.8591 42.8721 16.8591 37.1531C16.8591 31.9789 14.3381 29.4579 12.0439 27.2112C7.75512 23.0577 6.18664 20.2003 6.18664 14.0724C6.18664 8.01266 8.63063 1 14.0166 1C16.0612 1 17.2083 2.15757 18.3556 4.19988C18.4494 4.36004 18.5521 4.55884 18.6608 4.76928C19.0146 5.45408 19.432 6.26203 19.8135 6.26203C20.379 6.26203 20.4084 6.15435 21.4627 2.28951L21.6575 1.576H22.505L19.784 19.6551H19.0536C19.7019 5.62956 17.1586 1.68061 13.9669 1.68061C9.52819 1.68061 7.68311 7.74032 7.7328 13.2553C7.78249 16.9319 9.02946 19.5189 12.9194 23.1278C16.8094 26.7362 18.5549 29.8681 18.455 35.5871C18.3556 41.8511 15.4628 49 10.0267 49C6.98753 49 5.62793 47.025 4.77512 45.7863L4.69043 45.6634C4.63612 45.5893 4.58301 45.5136 4.53037 45.4385C4.2446 45.0309 3.97227 44.6425 3.59332 44.6425C2.8953 44.6425 2.3339 45.5923 1.63562 48.3836Z" stroke="black" stroke-width="0.44" mask="url(#path-1-outside-1_2608_39682)"/>
<path fill-rule="evenodd" clip-rule="evenodd" d="M27.0366 6.60737C27.5395 3.3258 27.1369 2.43679 25.3262 2.43679H24.2696L24.4204 1.54778H33.627L33.4762 2.43679H32.4699C30.6589 2.43679 29.9042 3.18915 29.401 6.60737L24.8735 35.3939C24.5715 37.4447 24.3704 39.5645 24.4207 40.9319C24.5715 45.1032 26.3827 47.6328 30.206 47.6328C34.8848 47.6328 36.7461 42.0262 37.9537 34.2314L41.5759 11.2575C42.5822 4.82983 42.3306 2.43679 39.2618 2.43679H39.0102L39.161 1.54778L57.3514 1.54756C61.7346 1.54756 64.9589 4.56057 64.9589 10.7917C64.9589 19.8989 60.2734 26.2662 53.1195 26.2662H50.0965L47.4266 43.3846C46.9227 46.6714 47.4266 47.4931 49.2904 47.4931H50.8525L50.7014 48.3836H41.0285L41.1795 47.4931L42.1871 47.4934C43.8496 47.4934 44.5549 46.8087 45.0585 43.3849L50.8525 6.54651C51.3564 3.25974 50.8525 2.43799 49.1394 2.43799H47.5059L47.0594 2.43679C44.4937 2.43679 43.538 4.69318 42.5317 10.9833L38.8592 34.368C37.5008 42.8465 35.388 49 29.3003 49C24.5212 49 22.2573 45.7866 22.2071 40.2479C22.2071 38.4017 22.4081 36.214 22.7605 33.821L27.0366 6.60737ZM62.3896 10.5181C62.2888 18.8721 59.4674 25.3769 53.0187 25.3769H50.2478L53.2203 6.47783C53.7242 3.19153 54.5302 2.43822 56.2936 2.43822H56.8477C61.4325 2.43822 62.4399 6.8205 62.3896 10.5181Z" stroke="black" stroke-width="0.44" mask="url(#path-1-outside-1_2608_39682)"/>
<path d="M59.3645 47.4934C61.0271 47.4934 61.682 46.8087 62.236 43.3169L67.9794 6.75181C68.5838 3.19175 68.0297 2.4382 66.3166 2.4382H65.3093L65.4603 1.54778H83.3661L80.7762 17.9816H80.222C81.6325 5.72521 81.2801 2.4382 75.2343 2.4382H73.471C71.7074 2.4382 70.9519 3.05464 70.3977 6.54672L67.7276 23.5963H69.2388C72.8663 23.5963 74.277 19.4198 75.1333 13.8733H75.6875L72.4129 34.8263H71.8587C72.7652 29.143 72.7652 24.4867 69.0875 24.4867H67.5763L64.6038 43.3851C64.0998 46.809 64.7043 47.4936 66.4679 47.4936H68.6844C74.4781 47.4936 76.6445 42.1529 78.9115 30.5123H79.4657L76.5943 48.384H58.2054L58.3564 47.4936L59.3645 47.4934Z" stroke="black" stroke-width="0.44" mask="url(#path-1-outside-1_2608_39682)"/>
<path fill-rule="evenodd" clip-rule="evenodd" d="M93.8214 25.7186V25.5818C98.9604 23.3223 102.134 17.5016 102.134 10.449C102.285 4.56056 99.2119 1.54756 94.3753 1.54756H85.9615L85.8104 2.43798H86.8686C88.6319 2.43798 89.035 3.32841 88.5311 6.5465L82.7877 43.1109C82.3345 46.3297 81.6796 47.4931 79.866 47.4931H78.8581L78.7071 48.3836H87.8261L87.9772 47.4931H86.8183C85.0552 47.4931 84.6521 46.4665 85.1057 43.2477L87.8261 26.0613H90.3452C93.7711 26.0613 95.0308 26.2664 94.0229 38.4548C93.368 46.6716 94.4764 49 96.5923 49C98.4062 49 100.472 45.7132 101.228 37.7702H100.522C99.968 43.6586 98.7588 46.0552 97.7515 46.0552C96.5926 46.0552 96.0887 44.7546 96.5423 35.5105C96.7941 29.0743 95.4842 26.9515 93.8214 25.7186ZM99.5648 9.42239C99.5648 16.0644 97.2475 25.1709 91.8567 25.1709H87.9772L90.8994 6.47759C91.4031 3.1913 92.2091 2.43798 93.9727 2.43798H94.5269C99.0611 2.43798 99.6153 5.99851 99.5648 9.42239Z" stroke="black" stroke-width="0.44" mask="url(#path-1-outside-1_2608_39682)"/>
<path d="M101.666 47.4934C103.328 47.4934 103.983 46.8774 104.537 43.3849L110.331 6.5465C110.885 3.05465 110.331 2.43798 108.618 2.43798H107.611L107.762 1.54756H125.214L122.573 17.8443H122.019C123.53 5.31388 122.724 2.43775 117.435 2.43775H115.772C114.009 2.43775 113.253 2.9173 112.699 6.54627L109.928 24.0754H111.59C115.217 24.0754 116.124 20.6515 117.283 14.4204H117.837L114.613 35.1676H114.059C114.764 29.416 115.066 24.9656 111.49 24.9656H109.776L106.905 43.3844C106.351 46.8769 107.006 47.4929 108.769 47.4929H110.079L109.928 48.3833H100.507L100.658 47.4929L101.666 47.4934Z" stroke="black" stroke-width="0.44" mask="url(#path-1-outside-1_2608_39682)"/>
<path fill-rule="evenodd" clip-rule="evenodd" d="M142.762 15.8517C142.762 7.00784 140.428 1 136.206 1C128.755 1 122.347 19.0922 122.347 34.2139C122.347 43.058 124.731 48.9313 128.953 48.9313C136.503 48.9313 142.762 30.6361 142.762 15.8517ZM136.106 1.60699C139.236 1.60699 140.428 5.5227 140.477 11.261C140.527 15.2438 139.981 20.1049 139.186 25.1005C137.298 37.3194 134.219 48.3233 129.053 48.3233C125.874 48.3233 124.533 44.2729 124.533 38.4673C124.533 34.5516 125.03 29.7582 125.824 24.8305C127.712 12.6109 130.991 1.60699 136.106 1.60699Z" stroke="black" stroke-width="0.44" mask="url(#path-1-outside-1_2608_39682)"/>
<path fill-rule="evenodd" clip-rule="evenodd" d="M152.886 25.5818V25.7186C154.549 26.9515 155.859 29.0743 155.607 35.5105C155.153 44.7546 155.657 46.0552 156.816 46.0552C157.823 46.0552 159.032 43.6586 159.587 37.7702H160.292C159.536 45.7132 157.471 49 155.657 49C153.541 49 152.432 46.6716 153.087 38.4548C154.095 26.2664 152.836 26.0613 149.41 26.0613H146.89L144.17 43.2477C143.716 46.4665 144.12 47.4931 145.883 47.4931H147.042L146.89 48.3836H137.771L137.922 47.4931H138.93C140.744 47.4931 141.399 46.3297 141.852 43.1109L147.595 6.5465C148.099 3.32841 147.696 2.43798 145.933 2.43798H144.875L145.026 1.54756H153.44C158.276 1.54756 161.349 4.56056 161.198 10.449C161.198 17.5016 158.025 23.3223 152.886 25.5818ZM150.921 25.1709C156.312 25.1709 158.629 16.0644 158.629 9.42239C158.68 5.99851 158.126 2.43798 153.592 2.43798H153.037C151.274 2.43798 150.468 3.1913 149.964 6.47759L147.042 25.1709H150.921Z" stroke="black" stroke-width="0.44" mask="url(#path-1-outside-1_2608_39682)"/>
<path d="M193 1.54778H186.926L173.674 41.9476L173.022 1.54801H166.948L166.747 2.43844H167.802C169.508 2.43844 169.96 3.19175 169.458 6.61493L164.388 39.0028C163.284 46.0557 162.531 47.4936 160.121 47.4936H159.82L159.67 48.384H167.099L167.25 47.4936H167.099C164.238 47.4936 164.188 46.193 165.292 39.0028L170.613 4.90369H170.663L171.617 48.9315H172.169L186.676 4.90369H186.776L180.803 43.3169C180.251 46.8774 179.548 47.4934 177.841 47.4934H176.837L176.686 48.3838H185.671L185.822 47.4934H184.768C183.111 47.4934 182.609 46.8087 183.161 43.3169L188.884 6.54672C189.436 3.05464 190.239 2.4382 191.946 2.4382H192.85L193 1.54778Z" stroke="black" stroke-width="0.44" mask="url(#path-1-outside-1_2608_39682)"/>
</svg>
